# xmcd
#
# Track frame offsets: 
#        150
#        11180
#        22225
#        32427
#        43432
#        53582
#        65314
#        77252
#        87365
#        98957
#        110882
#        123630
#        133570
#        142700
#        152560
#        162597
#        172552
#        182042
#        194707
#        205834
#        218475
#        229497
#
# Disc length: 3168 seconds
#
# Revision: 1
# Processed by: cddbd v1.5.2PL0 Copyright (c) Steve Scherf et al.
# Submitted via: ExactAudioCopy v0.95b2
#
DISCID=300c5e16
DTITLE=Various Artist - Chess New Orleans
DYEAR=1995
DGENRE=R&B
TTITLE0=Sugar Boy Crawford - Jock-A-Mo
TTITLE1=Sugar Boy Crawford - Overboard
TTITLE2=Slim Saunders - Let's Have Some Fun (Honey)
TTITLE3=Sugar Boy Crawford - Oo Wee Sugar
TTITLE4=Sugar Boy Crawford - No More Heartaches
TTITLE5=Paul Gayten - Down Boy
TTITLE6=Sugar Boy Crawford - What's Wrong
TTITLE7=The Hawketts - Mardi Gras Mambo
TTITLE8=The Hawketts - Your Time's Up
TTITLE9=Paul Gayten - If You Love Me, Tell Me So
TTITLE10=Bobby Charles - See You Later Alligator
TTITLE11=Charles Williams - So Glad She's Mine
TTITLE12=Bobby Charles - Time Will Tell
TTITLE13=Bobby Charles - Take It Easy Greasy
TTITLE14=Charles Williams - What Can I Do?
TTITLE15=Bobby Charles - No Use Knocking
TTITLE16=Bobby Charles - You Can Suit Yourself
TTITLE17=Clifton Chenier - The Big Wheel (Squeeze Box Shuffle)
TTITLE18=Clifton Chenier - Baby Please
TTITLE19=Paul Gayten - Driving Home, Part 2
TTITLE20=Paul Gayten - For You My Love
TTITLE21=Eddie Bo - Walk That Walk
EXTD=
EXTT0=
EXTT1=
EXTT2=
EXTT3=
EXTT4=
EXTT5=
EXTT6=
EXTT7=
EXTT8=
EXTT9=
EXTT10=
EXTT11=
EXTT12=
EXTT13=
EXTT14=
EXTT15=
EXTT16=
EXTT17=
EXTT18=
EXTT19=
EXTT20=
EXTT21=
PLAYORDER=
